<svg width="21" height="20" viewBox="0 0 21 20" fill="none" xmlns="http://www.w3.org/2000/svg">
<path opacity="0.5" d="M18.8496 6.71307C19.2148 6.34787 19.5044 5.91432 19.702 5.43718C19.8996 4.96004 20.0013 4.44865 20.0012 3.93222C20.0012 3.41579 19.8994 2.90442 19.7017 2.42732C19.5041 1.95021 19.2143 1.51671 18.8491 1.15157C18.4839 0.786434 18.0504 0.496802 17.5732 0.299214C17.0961 0.101627 16.5847 -4.64134e-05 16.0683 1.58944e-08C15.0253 9.37841e-05 14.0251 0.414507 13.2876 1.15207L12.4006 2.03907L12.4386 2.15007C12.876 3.40089 13.5917 4.53608 14.5316 5.47007C15.4934 6.43764 16.668 7.16704 17.9616 7.60007L18.8496 6.71307Z" fill="#F9AA01"/>
<path d="M12.4396 2.00012L12.4006 2.03812L12.4386 2.15012C12.876 3.40093 13.5917 4.53613 14.5316 5.47012C15.4933 6.43772 16.6679 7.16712 17.9616 7.60012L9.40162 16.1601C8.82362 16.7371 8.53462 17.0261 8.21662 17.2741C7.8413 17.5667 7.43524 17.8175 7.00562 18.0221C6.64162 18.1961 6.25462 18.3251 5.47962 18.5831L1.39662 19.9441C1.20978 20.0067 1.00919 20.016 0.817381 19.9709C0.625571 19.9258 0.450128 19.8281 0.310746 19.6888C0.171365 19.5495 0.0735636 19.3742 0.0283207 19.1824C-0.0169221 18.9906 -0.00781553 18.79 0.0546186 18.6031L1.41662 14.5191C1.67462 13.7451 1.80362 13.3581 1.97662 12.9941C2.18162 12.5641 2.43262 12.1581 2.72562 11.7821C2.97362 11.4641 3.26262 11.1761 3.83962 10.5991L12.4396 2.00012Z" fill="#F9AA01"/>
</svg>
